<?xml version="1.0" standalone="no"?>
<!DOCTYPE svg PUBLIC "-//W3C//DTD SVG 20010904//EN"
 "http://www.w3.org/TR/2001/REC-SVG-20010904/DTD/svg10.dtd">
<svg version="1.0" xmlns="http://www.w3.org/2000/svg"
 width="500.000000pt" height="500.000000pt" viewBox="0 0 500.000000 500.000000"
 preserveAspectRatio="xMidYMid meet">

<g transform="translate(0.000000,500.000000) scale(0.100000,-0.100000)"
fill="#000000" stroke="none">
<path d="M1174 4796 c-315 -72 -546 -326 -584 -644 -12 -97 -1 -228 25 -303 8
-23 15 -42 15 -44 0 -2 -66 -22 -120 -36 -133 -33 -185 -50 -201 -65 -18 -17
-19 -58 -19 -1290 l0 -1273 27 -21 c19 -15 35 -19 53 -15 59 15 55 -76 58
1266 l2 1230 23 8 c31 13 214 61 230 61 7 0 33 -27 57 -61 91 -125 268 -238
427 -273 92 -20 234 -20 326 0 94 20 236 90 315 155 135 111 243 304 259 464
7 71 13 81 56 88 17 4 75 18 127 33 254 70 237 69 420 21 52 -14 192 -50 310
-81 118 -30 269 -69 335 -86 66 -18 136 -36 155 -40 19 -4 98 -25 175 -45 77
-20 156 -40 175 -45 19 -4 78 -19 130 -33 52 -14 183 -48 290 -76 291 -74 309
-79 320 -86 7 -4 10 -461 10 -1306 0 -1041 -3 -1299 -13 -1299 -7 0 -66 17
-132 39 -66 21 -235 76 -375 121 -140 45 -280 90 -310 100 -30 10 -136 44
-235 76 -99 31 -252 81 -340 109 -88 29 -227 74 -310 100 -82 26 -179 58 -215
70 l-65 22 -5 1130 c-4 938 -7 1133 -19 1146 -18 22 -84 22 -102 0 -12 -13
-15 -208 -19 -1146 l-5 -1129 -35 -13 c-19 -7 -116 -38 -215 -70 -99 -32 -218
-70 -265 -85 -47 -16 -186 -61 -310 -100 -124 -39 -263 -84 -310 -100 -84 -28
-461 -149 -735 -237 -77 -25 -156 -50 -175 -56 -19 -6 -47 -20 -62 -30 -50
-33 -30 -104 36 -123 27 -7 504 -160 576 -184 30 -10 170 -55 310 -100 140
-45 293 -95 340 -110 47 -16 186 -61 310 -100 124 -40 299 -97 390 -126 242
-80 188 -82 520 26 47 16 200 65 340 110 140 45 280 90 310 100 30 10 170 55
310 100 140 45 280 90 310 100 72 24 549 177 576 184 12 4 31 15 43 25 l21 18
0 1410 c0 1384 0 1410 -19 1428 -17 14 -176 62 -321 95 -19 4 -78 19 -130 33
-89 24 -309 81 -630 163 -74 19 -196 51 -270 70 -74 20 -151 39 -170 44 -19 4
-96 24 -170 44 -74 19 -218 56 -320 82 l-185 46 -213 -55 -212 -54 -6 26 c-40
181 -122 321 -255 435 -74 64 -153 108 -253 142 -100 33 -282 43 -382 20z
m273 -121 c280 -53 486 -291 501 -578 16 -321 -201 -591 -521 -645 -90 -15
-104 -15 -194 0 -252 43 -445 219 -507 464 -20 79 -20 219 -1 296 48 185 161
325 330 409 129 64 251 81 392 54z m1268 -3229 c88 -29 241 -79 340 -111 99
-31 197 -63 218 -69 21 -7 38 -17 39 -22 0 -10 -164 -66 -532 -184 -124 -39
-237 -76 -252 -82 -22 -8 -66 3 -280 72 -139 45 -296 96 -348 112 -152 49
-212 72 -212 82 1 10 24 18 362 126 124 39 263 85 310 100 145 48 132 49 355
-24z m-1142 -322 c78 -26 180 -59 227 -74 47 -16 164 -54 260 -84 96 -31 181
-60 188 -65 14 -8 -23 -21 -428 -151 -124 -40 -258 -83 -298 -96 -40 -13 -81
-24 -91 -24 -18 0 -166 45 -361 110 -47 16 -172 56 -279 90 -140 45 -190 65
-178 71 18 10 146 53 477 159 124 39 248 80 275 90 28 10 54 18 58 19 5 1 72
-20 150 -45z m2056 27 c31 -11 157 -52 281 -91 327 -105 459 -149 476 -158 17
-9 -11 -19 -426 -152 -124 -40 -258 -83 -298 -96 -40 -13 -81 -24 -92 -24 -11
0 -52 11 -92 24 -40 13 -174 56 -298 96 -415 133 -443 143 -426 152 17 9 149
53 476 158 124 39 248 80 275 90 64 23 59 23 124 1z m-949 -385 c377 -123 607
-196 619 -196 28 0 3 -33 -34 -45 -22 -7 -103 -33 -180 -58 -77 -25 -240 -77
-363 -117 l-222 -72 -108 35 c-59 19 -222 72 -362 117 -140 45 -273 88 -295
95 -37 12 -62 45 -34 45 12 0 336 103 644 205 72 24 139 44 150 44 11 1 94
-23 185 -53z"/>
<path d="M1286 4604 c-10 -9 -16 -33 -16 -60 0 -41 -2 -44 -27 -44 -43 0 -125
-43 -159 -82 -48 -54 -68 -117 -61 -188 10 -112 84 -197 193 -221 l54 -12 0
-124 c0 -124 0 -124 -22 -118 -64 18 -108 71 -108 128 0 50 -70 76 -103 39
-36 -39 -9 -152 51 -216 32 -34 116 -76 155 -76 25 0 27 -3 27 -41 0 -59 14
-79 55 -79 46 0 65 22 65 76 0 41 2 44 28 44 36 1 110 35 145 68 52 49 72 99
72 183 0 67 -3 81 -30 125 -35 56 -113 108 -176 119 l-39 7 0 124 c0 68 2 124
5 124 3 0 20 -6 39 -14 42 -17 74 -58 82 -105 9 -47 30 -71 65 -71 42 0 63 38
55 95 -15 110 -96 194 -205 211 -41 6 -41 7 -41 50 0 50 -19 74 -60 74 -16 0
-36 -7 -44 -16z m-16 -355 l0 -119 -24 0 c-57 0 -115 87 -101 150 11 51 84
108 118 92 4 -2 7 -57 7 -123z m199 -274 c71 -60 59 -165 -23 -204 -23 -12
-45 -21 -49 -21 -4 0 -7 56 -7 125 l0 125 24 0 c14 0 38 -11 55 -25z"/>
<path d="M3165 3238 c-45 -26 -44 -19 -45 -545 l0 -502 23 -24 c17 -18 125
-58 450 -166 454 -150 448 -148 484 -102 16 21 19 1002 3 1031 -6 11 -25 26
-43 34 -34 15 -263 93 -312 106 -16 5 -144 47 -284 94 -140 47 -255 86 -255
86 -1 0 -10 -6 -21 -12z m443 -274 c174 -58 323 -110 330 -116 8 -7 12 -40 12
-99 0 -73 -3 -89 -15 -89 -14 0 -529 168 -632 207 l-43 16 0 93 c0 77 3 94 15
94 8 0 158 -48 333 -106z m-193 -281 c61 -21 113 -42 117 -48 4 -5 8 -95 8
-199 0 -162 2 -192 17 -208 20 -22 61 -23 91 -2 21 15 22 21 22 185 0 127 3
171 13 174 6 3 68 -14 137 -38 l125 -43 3 -232 c2 -221 1 -232 -16 -232 -10 0
-66 16 -123 36 -57 20 -117 40 -134 44 -16 4 -97 31 -180 59 -82 28 -168 57
-190 64 l-40 14 -3 231 -2 232 22 0 c13 0 73 -17 133 -37z"/>
<path d="M2030 3093 c-25 -8 -61 -19 -80 -24 -66 -19 -95 -27 -215 -64 -66
-20 -133 -41 -150 -45 -112 -30 -213 -64 -232 -76 l-23 -14 0 -695 0 -694 22
-15 c29 -21 61 -20 87 2 21 17 21 18 24 662 l2 645 70 24 c70 23 174 56 230
71 17 4 75 22 130 39 55 17 103 31 107 31 4 0 9 -279 10 -619 3 -592 4 -620
22 -640 24 -26 77 -28 99 -3 16 17 17 80 17 703 0 376 -4 689 -8 695 -8 13
-47 34 -59 33 -4 -1 -28 -8 -53 -16z"/>
</g>
</svg>
