<?xml version="1.0" standalone="no"?>
<!DOCTYPE svg PUBLIC "-//W3C//DTD SVG 20010904//EN"
 "http://www.w3.org/TR/2001/REC-SVG-20010904/DTD/svg10.dtd">
<svg version="1.0" xmlns="http://www.w3.org/2000/svg"
 width="512.000000pt" height="512.000000pt" viewBox="0 0 512.000000 512.000000"
 preserveAspectRatio="xMidYMid meet">

<g transform="translate(0.000000,512.000000) scale(0.100000,-0.100000)"
fill="#000000" stroke="none">
<path d="M2392 5106 c-393 -75 -698 -337 -825 -707 -127 -369 -32 -785 243
-1069 38 -40 69 -74 68 -75 -2 -1 -32 -12 -68 -25 -151 -54 -331 -159 -437
-254 l-52 -47 -113 20 c-197 34 -496 61 -686 61 -125 0 -170 -18 -202 -80 -18
-36 -20 -58 -20 -292 l0 -253 -65 -34 c-109 -56 -197 -174 -224 -299 -14 -69
-14 -415 0 -484 27 -125 115 -243 224 -299 l65 -34 0 -253 c0 -364 0 -365 280
-376 721 -28 1251 -181 1790 -515 63 -39 132 -77 152 -83 53 -16 91 -2 228 83
539 334 1069 487 1790 515 192 8 227 19 260 84 18 36 20 58 20 292 l0 253 65
34 c109 56 197 174 224 299 14 69 14 415 0 484 -27 125 -115 243 -224 299
l-65 34 0 253 c0 234 -2 256 -20 292 -32 62 -77 80 -202 80 -190 0 -489 -27
-686 -61 l-113 -20 -52 47 c-106 95 -286 200 -437 254 -36 13 -66 24 -68 25
-1 1 30 35 68 75 276 284 370 700 243 1069 -144 420 -523 703 -963 717 -81 2
-151 -1 -198 -10z m383 -320 c429 -138 648 -607 475 -1016 -91 -214 -291 -383
-520 -441 -71 -18 -269 -18 -340 0 -229 58 -429 227 -520 441 -36 85 -50 147
-57 250 -24 374 250 723 621 790 89 16 251 5 341 -24z m245 -1790 c47 -7 127
-28 179 -45 90 -30 221 -95 221 -110 0 -4 -39 -20 -87 -35 -186 -60 -487 -198
-680 -313 l-93 -55 -92 55 c-194 115 -495 253 -680 313 -49 15 -88 31 -88 35
0 15 131 80 221 110 155 52 208 57 629 58 284 1 407 -3 470 -13z m-2090 -312
c519 -52 935 -187 1388 -451 l92 -54 0 -879 0 -879 -173 88 c-327 165 -686
282 -1042 340 -151 25 -386 51 -462 51 -32 0 -75 3 -95 6 l-38 7 0 161 0 161
65 34 c109 56 197 174 224 299 14 69 14 415 0 484 -27 125 -115 243 -224 299
l-65 34 0 162 0 162 93 -5 c50 -3 157 -12 237 -20z m3590 -136 l0 -163 -65
-34 c-109 -56 -197 -174 -224 -299 -14 -69 -14 -415 0 -484 27 -125 115 -243
224 -299 l65 -34 0 -161 0 -161 -37 -7 c-21 -3 -64 -6 -96 -6 -76 0 -311 -26
-462 -51 -356 -58 -715 -175 -1042 -340 l-173 -88 0 879 0 879 93 54 c377 220
691 337 1102 411 138 25 379 53 505 59 36 2 75 4 88 5 22 2 22 2 22 -160z
m-4000 -458 c70 -36 80 -70 80 -280 0 -161 -2 -185 -20 -220 -23 -45 -80 -80
-130 -80 -50 0 -107 35 -130 80 -18 35 -20 59 -20 220 0 161 2 185 20 220 37
73 124 99 200 60z m4220 0 c70 -36 80 -70 80 -280 0 -161 -2 -185 -20 -220
-23 -45 -80 -80 -130 -80 -50 0 -107 35 -130 80 -18 35 -20 59 -20 220 0 161
2 185 20 220 37 73 124 99 200 60z"/>
</g>
</svg>
