<?xml version="1.0" standalone="no"?>
<!DOCTYPE svg PUBLIC "-//W3C//DTD SVG 20010904//EN"
 "http://www.w3.org/TR/2001/REC-SVG-20010904/DTD/svg10.dtd">
<svg version="1.0" xmlns="http://www.w3.org/2000/svg"
 width="500.000000pt" height="500.000000pt" viewBox="0 0 500.000000 500.000000"
 preserveAspectRatio="xMidYMid meet">

<g transform="translate(0.000000,500.000000) scale(0.100000,-0.100000)"
fill="#000000" stroke="none">
<path d="M1301 4524 c-12 -15 -21 -31 -21 -37 0 -5 48 -157 106 -336 370
-1137 434 -1335 430 -1338 -2 -2 -53 29 -115 69 -928 608 -1288 842 -1313 852
-59 22 -112 -60 -71 -110 10 -12 169 -151 353 -309 184 -159 364 -314 400
-345 36 -32 290 -252 565 -490 l500 -433 28 -76 c47 -125 174 -509 201 -607
l25 -91 -50 -52 c-96 -100 -142 -242 -120 -375 41 -245 248 -426 487 -426 199
0 366 130 414 323 10 39 24 55 96 116 123 104 122 99 44 249 -70 134 -99 167
-140 158 -14 -3 -56 -10 -95 -16 l-70 -11 -88 45 c-48 25 -96 46 -106 46 -10
0 -23 6 -28 13 -6 6 -47 134 -92 282 -45 149 -89 289 -96 313 -14 42 -14 43 8
37 51 -15 195 -89 254 -131 81 -58 229 -205 316 -314 37 -47 106 -148 152
-226 51 -84 102 -157 129 -182 107 -99 268 -141 427 -112 30 5 227 14 438 19
l385 8 23 27 c30 35 29 61 -2 91 -22 23 -31 25 -127 25 -131 1 -235 14 -321
41 -55 18 -67 25 -61 38 29 66 54 154 54 196 1 216 -159 396 -386 436 -81 14
-248 6 -344 -16 -36 -9 -94 -18 -130 -21 -101 -9 -125 13 -205 185 -26 57
-103 125 -170 150 -29 11 -90 25 -133 30 -130 16 -240 61 -387 158 -78 51 -78
51 -137 178 -31 66 -105 226 -166 355 -128 276 -337 723 -467 1005 -229 492
-286 611 -302 623 -28 21 -70 15 -92 -14z m673 -1544 c55 -118 117 -250 138
-293 22 -43 38 -83 36 -87 -2 -5 -33 11 -70 35 l-66 44 -30 93 c-73 221 -170
525 -176 548 -9 36 55 -93 168 -340z m-477 -132 c112 -73 330 -216 485 -318
156 -101 319 -210 363 -242 159 -114 324 -187 472 -208 148 -21 195 -51 232
-150 45 -118 132 -198 241 -221 30 -7 56 -13 57 -14 2 -1 -12 -32 -31 -68
l-33 -67 -64 77 c-89 108 -231 248 -314 311 -162 121 -376 199 -580 209 l-110
6 -80 70 c-44 38 -259 225 -477 414 -219 189 -398 346 -398 349 0 7 18 -4 237
-148z m980 -1167 c56 -184 101 -336 100 -337 -1 0 -14 -4 -29 -8 -25 -6 -27
-3 -47 67 -18 61 -183 564 -198 605 -4 10 4 13 32 10 l39 -3 103 -334z m1423
43 c112 -51 173 -142 174 -259 2 -218 -233 -376 -454 -305 -127 41 -201 133
-208 261 -14 234 261 405 488 303z m-1097 -562 c68 -36 141 -120 167 -190 18
-46 21 -72 18 -138 -6 -115 -48 -182 -153 -245 -34 -21 -53 -24 -130 -24 -84
0 -95 2 -153 34 -71 38 -129 99 -164 169 -17 35 -24 69 -26 133 -4 96 11 146
62 207 84 99 252 123 379 54z m325 -110 c32 -60 32 -61 12 -72 -17 -9 -21 -8
-26 7 -4 10 -17 41 -29 70 -13 28 -21 54 -17 57 13 13 28 -3 60 -62z"/>
<path d="M2161 2324 c-12 -15 -21 -35 -21 -46 0 -23 43 -68 65 -68 20 0 57 19
67 34 15 22 7 63 -15 84 -32 30 -71 28 -96 -4z"/>
<path d="M2814 4345 c-73 -16 -134 -45 -192 -92 -23 -19 -156 -177 -295 -351
-319 -401 -307 -384 -307 -415 0 -39 34 -69 73 -65 29 3 58 36 299 338 147
184 288 354 313 377 101 93 277 104 392 26 49 -34 694 -600 706 -620 25 -42
-31 -95 -74 -72 -11 6 -130 89 -265 185 -134 96 -267 187 -296 202 -97 50
-235 32 -317 -42 -20 -18 -471 -578 -555 -688 -20 -27 -26 -46 -24 -70 3 -30
33 -57 382 -335 242 -193 387 -303 401 -303 30 0 75 37 75 61 0 11 -5 29 -10
39 -6 11 -155 135 -333 276 -177 141 -328 262 -336 269 -12 11 -11 17 7 39
l20 26 78 -63 c494 -394 608 -480 637 -480 52 0 86 65 55 105 -11 14 -583 473
-657 528 -24 17 -24 18 -8 44 10 14 21 26 25 26 4 0 160 -122 346 -270 360
-287 372 -294 417 -249 14 14 19 30 17 52 -3 29 -35 58 -335 297 -183 146
-338 271 -344 277 -10 10 -9 17 6 33 10 11 22 20 27 20 4 0 148 -111 318 -247
384 -306 374 -299 408 -287 34 12 57 53 49 85 -4 17 -52 61 -139 130 -73 58
-225 179 -338 268 -113 89 -205 165 -205 169 0 4 8 18 17 31 l17 24 83 -66
c46 -36 199 -158 341 -271 275 -220 293 -230 338 -185 14 14 19 30 17 52 -3
29 -35 58 -335 297 -183 146 -333 270 -333 275 -3 19 58 29 100 16 22 -6 143
-86 270 -176 344 -246 333 -240 399 -240 113 0 196 83 195 195 0 96 26 68
-554 580 -209 184 -280 230 -385 249 -74 14 -114 13 -191 -4z"/>
<path d="M2372 2798 c-25 -13 -37 -46 -28 -80 6 -26 535 -451 568 -456 60 -10
100 35 78 87 -6 15 -109 104 -237 206 -351 280 -330 267 -381 243z"/>
<path d="M1278 2583 c-27 -31 -428 -534 -496 -623 -113 -151 -130 -328 -47
-497 34 -71 87 -131 170 -193 259 -193 701 -503 734 -515 84 -29 189 14 232
95 24 44 25 130 3 176 -9 19 -55 69 -103 111 -377 335 -430 386 -445 424 -18
46 -20 69 -6 69 6 0 142 -105 303 -233 372 -296 360 -287 388 -287 44 0 70 27
67 68 -3 36 -17 48 -345 310 l-342 274 16 24 c8 13 20 24 25 24 8 0 322 -247
583 -458 100 -81 126 -92 164 -71 20 11 27 24 29 55 l3 41 -288 229 c-158 126
-314 249 -345 274 -45 34 -55 47 -48 60 25 46 29 44 242 -126 146 -116 214
-164 232 -164 56 0 87 74 49 118 -10 11 -105 88 -211 172 l-193 153 24 25 24
24 114 -91 c89 -71 121 -91 146 -91 53 0 85 49 61 94 -14 25 -278 242 -313
256 -12 4 -31 3 -47 -4 -33 -14 -432 -511 -462 -576 -32 -70 -29 -169 8 -243
25 -51 59 -86 288 -289 243 -216 259 -232 256 -261 -4 -39 -41 -62 -72 -45
-22 12 -470 332 -657 469 -148 109 -191 178 -193 304 -2 127 -7 118 356 573
188 235 218 278 218 307 0 64 -75 88 -122 38z"/>
</g>
</svg>
