<?xml version="1.0" standalone="no"?>
<!DOCTYPE svg PUBLIC "-//W3C//DTD SVG 20010904//EN"
 "http://www.w3.org/TR/2001/REC-SVG-20010904/DTD/svg10.dtd">
<svg version="1.0" xmlns="http://www.w3.org/2000/svg"
 width="500.000000pt" height="500.000000pt" viewBox="0 0 500.000000 500.000000"
 preserveAspectRatio="xMidYMid meet">

<g transform="translate(0.000000,500.000000) scale(0.100000,-0.100000)"
fill="#000000" stroke="none">
<path d="M2542 4734 c-21 -15 -22 -21 -22 -190 0 -161 2 -176 20 -194 24 -24
57 -26 88 -4 21 15 22 21 22 185 0 167 0 170 -25 194 -28 29 -51 31 -83 9z"/>
<path d="M3203 4447 c-12 -7 -69 -63 -127 -124 -84 -89 -106 -119 -106 -141 0
-47 46 -75 94 -56 27 10 236 243 236 263 0 24 -29 58 -55 65 -11 3 -30 0 -42
-7z"/>
<path d="M1895 4410 c-39 -43 -26 -67 106 -192 76 -73 131 -118 144 -118 36 0
65 28 65 64 0 28 -16 47 -118 149 -99 97 -124 117 -149 117 -17 0 -38 -8 -48
-20z"/>
<path d="M2541 4039 c-203 -40 -289 -290 -155 -448 84 -97 200 -125 295 -69
111 65 143 204 61 268 -68 54 -146 -17 -97 -87 14 -20 13 -24 -9 -49 -35 -41
-85 -39 -131 6 -60 58 -70 136 -24 194 30 38 71 56 128 56 235 0 468 -183 535
-421 23 -83 29 -157 17 -231 -48 -293 -281 -499 -566 -500 -171 -1 -294 50
-415 172 -117 118 -170 244 -170 405 0 142 52 278 149 388 56 63 65 101 33
130 -44 40 -92 15 -167 -85 -77 -103 -117 -195 -139 -323 l-13 -70 -79 124
c-132 207 -161 242 -228 276 -186 93 -398 -37 -399 -245 0 -37 6 -80 15 -100
8 -19 100 -165 205 -325 104 -159 238 -364 297 -455 60 -91 118 -175 129 -187
39 -44 110 -17 110 41 -1 16 -110 192 -300 483 -165 252 -305 468 -312 480
-17 34 -13 104 9 140 38 63 127 84 192 46 35 -20 62 -58 196 -268 347 -544
355 -555 483 -640 177 -119 402 -153 599 -93 102 31 191 83 280 163 76 69 98
99 311 432 126 197 245 373 264 391 65 61 180 39 219 -42 9 -19 16 -52 16 -74
0 -42 -9 -57 -482 -756 -73 -108 -128 -200 -128 -213 0 -46 55 -77 98 -54 18
9 582 841 617 908 24 48 31 149 15 209 -18 62 -96 147 -158 171 -57 22 -161
22 -213 -1 -61 -26 -100 -66 -177 -186 -130 -201 -144 -220 -152 -215 -4 2
-10 28 -13 57 -25 232 -206 460 -438 552 -108 42 -231 60 -308 45z"/>
<path d="M2265 3422 c-42 -31 -51 -44 -53 -74 -2 -28 2 -40 20 -52 36 -25 63
-19 120 27 58 47 68 75 44 113 -25 37 -70 32 -131 -14z"/>
<path d="M2768 3449 c-30 -17 -41 -47 -28 -79 8 -20 26 -33 67 -49 86 -33 125
-25 138 30 9 36 -26 73 -89 93 -57 19 -65 19 -88 5z"/>
<path d="M2287 3212 c-10 -11 -17 -35 -17 -59 0 -160 147 -303 312 -303 123 0
226 58 280 157 31 56 52 137 44 169 -14 54 -15 54 -320 54 -261 0 -284 -1
-299 -18z m473 -120 c0 -17 -62 -81 -94 -96 -47 -22 -111 -20 -163 5 -41 20
-83 64 -83 88 0 8 53 11 170 11 94 0 170 -3 170 -8z"/>
<path d="M1360 2366 c-338 -40 -336 -40 -393 -76 -66 -42 -100 -101 -132 -228
-14 -59 -30 -113 -34 -120 -4 -7 -104 -37 -221 -68 -118 -30 -222 -62 -232
-71 -10 -9 -18 -25 -18 -36 0 -33 109 -337 141 -396 17 -29 29 -54 27 -56 -2
-1 -18 -10 -37 -20 -44 -22 -117 -98 -143 -149 -48 -94 -60 -194 -28 -226 20
-20 33 -20 619 -20 l600 0 20 26 c27 34 26 50 -4 79 l-24 25 -545 0 c-522 0
-544 1 -539 18 10 40 79 117 128 141 l49 26 377 5 c412 5 409 5 409 65 0 63
-1 63 -355 67 -282 3 -325 6 -363 22 -49 21 -87 63 -100 109 -6 18 -26 76 -45
130 -25 68 -32 99 -24 102 7 2 99 27 206 54 107 28 198 54 203 59 6 6 28 75
49 153 41 149 59 186 100 206 27 13 527 73 607 73 29 0 67 -6 86 -14 51 -21
107 -76 128 -126 18 -40 161 -380 224 -532 53 -127 34 -159 -160 -261 -81 -43
-155 -77 -164 -75 -20 4 -17 -10 -62 408 -20 182 -37 303 -46 317 -28 45 -98
36 -110 -14 -4 -16 10 -188 32 -390 43 -391 43 -389 108 -437 20 -15 42 -21
79 -21 46 1 71 11 217 90 175 94 211 123 243 195 39 88 31 128 -77 388 -54
129 -96 236 -93 238 3 3 63 0 133 -7 275 -25 461 5 735 117 277 113 616 129
954 43 204 -52 398 -192 524 -378 109 -160 169 -341 178 -533 15 -314 -99
-554 -336 -707 -199 -128 -442 -162 -866 -122 -736 70 -1392 96 -1815 73 -107
-6 -196 -9 -198 -8 -8 9 122 92 213 136 123 60 222 88 340 97 75 5 93 10 112
29 31 31 29 57 -8 99 l-31 35 653 0 c360 0 687 5 728 10 109 14 189 36 351 97
80 30 183 68 230 84 98 35 135 67 125 108 -7 32 -31 51 -62 51 -12 0 -118 -36
-235 -80 -325 -123 -364 -131 -655 -137 l-243 -5 0 21 c0 54 35 181 67 245 82
164 276 295 435 296 83 0 122 43 93 101 -15 28 -18 29 -88 29 -153 0 -306 -68
-427 -190 -41 -42 -90 -101 -109 -133 -46 -79 -91 -214 -98 -297 l-6 -70 -483
0 c-471 0 -485 -1 -504 -20 -32 -32 -25 -68 20 -110 l40 -37 -107 -28 c-190
-51 -389 -168 -535 -317 -57 -57 -68 -73 -68 -101 0 -21 8 -41 20 -52 18 -17
28 -17 142 -6 200 20 623 29 968 20 420 -11 725 -31 1145 -75 167 -17 402 -19
506 -4 241 36 432 128 579 279 113 117 191 267 227 436 20 94 19 300 -2 409
-53 283 -210 543 -429 708 -209 158 -474 232 -826 231 -246 0 -361 -23 -616
-123 -212 -83 -367 -107 -584 -90 -261 20 -248 17 -269 59 -36 69 -130 142
-221 169 -70 21 -130 19 -400 -12z"/>
<path d="M1092 1874 c-27 -19 -30 -74 -4 -97 19 -18 90 -36 138 -37 38 0 64
27 64 67 0 38 -15 51 -82 69 -68 18 -88 18 -116 -2z"/>
</g>
</svg>
