<?xml version="1.0" standalone="no"?>
<!DOCTYPE svg PUBLIC "-//W3C//DTD SVG 20010904//EN"
 "http://www.w3.org/TR/2001/REC-SVG-20010904/DTD/svg10.dtd">
<svg version="1.0" xmlns="http://www.w3.org/2000/svg"
 width="512.000000pt" height="512.000000pt" viewBox="0 0 512.000000 512.000000"
 preserveAspectRatio="xMidYMid meet">

<g transform="translate(0.000000,512.000000) scale(0.100000,-0.100000)"
fill="#000000" stroke="none">
<path d="M4615 5113 c-46 -9 -113 -38 -159 -67 -34 -22 -126 -123 -319 -351
-163 -192 -277 -319 -286 -318 -9 1 -34 8 -56 17 -52 20 -100 20 -161 0 -44
-15 -91 -59 -445 -411 l-395 -393 -24 42 c-51 91 -222 338 -310 448 -418 521
-955 889 -1462 1002 -86 19 -132 23 -278 23 -165 0 -179 -2 -248 -27 -109 -39
-177 -84 -268 -173 -188 -186 -242 -427 -174 -766 87 -431 342 -854 761 -1265
191 -187 412 -357 654 -504 39 -23 72 -44 74 -46 3 -3 -171 -181 -386 -397
-373 -374 -392 -395 -407 -446 -21 -71 -20 -89 5 -163 11 -33 17 -64 12 -68
-4 -4 -150 -127 -323 -273 -173 -146 -327 -283 -342 -305 -65 -93 -92 -229
-68 -333 40 -169 158 -283 337 -325 115 -27 231 -3 331 69 24 18 161 171 305
342 143 171 263 314 267 318 4 5 35 -1 68 -12 74 -25 92 -26 163 -5 52 15 74
36 595 556 l541 539 165 -53 c156 -49 166 -54 177 -83 7 -19 258 -275 674
-687 611 -605 665 -660 677 -703 18 -63 78 -154 128 -193 287 -227 709 -11
679 348 -14 169 -115 301 -276 360 -47 18 -77 42 -187 151 -121 119 -134 129
-168 129 -48 0 -72 -13 -92 -52 -26 -51 -12 -85 66 -163 39 -38 70 -72 70 -76
0 -3 -12 -11 -27 -18 -49 -23 -106 -75 -143 -132 l-37 -57 -421 421 -422 422
105 105 104 104 60 -57 c45 -44 67 -57 90 -57 63 0 111 44 111 103 0 38 -43
88 -276 319 -164 162 -226 217 -247 220 -27 3 -30 10 -81 164 l-53 162 534
533 c309 309 543 550 555 573 28 55 34 131 13 186 -9 25 -18 52 -18 61 -1 9
128 125 313 281 173 146 329 286 347 310 176 246 52 586 -242 663 -56 14 -135
18 -180 8z m181 -221 c130 -67 163 -236 68 -342 -42 -46 -620 -534 -637 -538
-15 -3 -221 202 -216 216 6 15 501 601 537 635 62 59 166 71 248 29z m-3836
-7 c270 -59 575 -216 856 -441 130 -104 371 -344 470 -468 304 -382 554 -839
763 -1398 28 -75 51 -140 51 -145 0 -4 -53 73 -118 172 -385 588 -772 1089
-1116 1443 -430 442 -861 726 -1266 833 -42 11 -43 13 -20 20 39 13 297 2 380
-16z m-230 -257 c614 -244 1263 -901 2037 -2063 129 -195 136 -205 131 -205
-2 0 -525 522 -1163 1160 -1262 1262 -1188 1181 -1005 1108z m-421 -338 c102
-249 292 -536 540 -814 353 -396 948 -876 1661 -1341 91 -59 169 -112 175
-117 23 -21 -351 124 -545 212 -520 236 -919 499 -1235 815 -416 415 -645 829
-696 1255 -10 89 -6 220 8 242 3 6 20 -36 38 -93 17 -57 42 -129 54 -159z
m1281 -916 c1251 -1251 1183 -1177 870 -965 -1006 680 -1612 1259 -1893 1807
-30 60 -65 134 -78 164 -22 55 -50 140 -46 140 1 0 517 -516 1147 -1146z
m2382 598 c148 -148 238 -245 238 -257 0 -12 -179 -198 -492 -512 -271 -271
-496 -493 -499 -493 -3 0 -14 21 -24 48 -42 112 -143 339 -218 490 l-80 164
399 399 c253 253 407 399 419 399 12 0 109 -90 257 -238z m-1752 -1995 c74
-31 148 -61 165 -67 l29 -11 -495 -495 c-315 -315 -502 -494 -514 -494 -26 0
-495 468 -495 495 0 12 146 166 396 416 l396 396 192 -92 c105 -51 252 -117
326 -148z m1220 -292 l-105 -105 -70 70 -70 70 105 105 105 105 70 -70 70 -70
-105 -105z m-2431 -679 c57 -57 102 -108 100 -114 -7 -19 -499 -600 -539 -636
-110 -99 -281 -61 -346 78 -41 88 -27 173 39 242 55 57 619 533 632 534 6 0
57 -47 114 -104z m3790 -395 c125 -64 159 -224 69 -327 -107 -121 -300 -90
-362 58 -42 100 4 216 109 271 43 23 137 22 184 -2z"/>
<path d="M4098 1381 c-25 -22 -32 -37 -32 -65 0 -65 61 -117 120 -102 75 19
100 112 45 167 -40 39 -89 40 -133 0z"/>
</g>
</svg>
