<?xml version="1.0" standalone="no"?>
<!DOCTYPE svg PUBLIC "-//W3C//DTD SVG 20010904//EN"
 "http://www.w3.org/TR/2001/REC-SVG-20010904/DTD/svg10.dtd">
<svg version="1.0" xmlns="http://www.w3.org/2000/svg"
 width="512.000000pt" height="512.000000pt" viewBox="0 0 512.000000 512.000000"
 preserveAspectRatio="xMidYMid meet">

<g transform="translate(0.000000,512.000000) scale(0.100000,-0.100000)"
fill="#000000" stroke="none">
<path d="M2589 5093 c-64 -33 -114 -100 -124 -167 -14 -94 41 -194 131 -240
l32 -15 74 -378 75 -378 -137 -140 c-199 -205 -287 -347 -341 -553 -16 -59
-22 -120 -26 -257 -6 -197 7 -320 52 -520 14 -60 25 -113 25 -117 0 -5 -27 -8
-59 -8 -71 0 -175 -21 -276 -55 -83 -27 -1770 -828 -1797 -852 -24 -22 -23
-78 2 -103 38 -38 36 -39 505 185 611 292 1184 564 1255 595 121 53 242 81
348 81 128 0 997 -160 1056 -195 57 -33 90 -95 91 -166 0 -64 -22 -108 -75
-151 -68 -55 -82 -54 -560 33 -344 63 -438 77 -457 69 -49 -22 -55 -96 -10
-125 31 -20 833 -166 912 -166 90 0 162 29 233 95 l58 53 519 77 c313 46 533
74 553 70 18 -3 48 -20 67 -37 30 -25 35 -37 35 -72 0 -44 -18 -73 -60 -99
-14 -9 -178 -73 -365 -142 -187 -70 -350 -137 -362 -148 -39 -35 -25 -99 25
-118 23 -9 75 7 394 127 272 102 380 147 415 173 141 107 137 319 -8 415 -22
15 -67 34 -102 42 -58 16 -70 15 -224 -6 -90 -13 -165 -21 -168 -18 -2 2 13
44 34 94 84 195 88 233 29 259 -57 23 -87 0 -124 -99 -40 -105 -118 -269 -135
-282 -8 -6 -102 -23 -209 -38 -107 -16 -210 -31 -227 -33 -31 -5 -33 -4 -33
24 0 55 -31 148 -66 200 -39 57 -118 115 -179 133 -22 7 -227 46 -455 89
l-414 76 -13 45 c-23 80 -62 264 -69 328 l-7 62 977 0 976 0 0 -22 c-1 -13 -9
-68 -19 -123 -20 -108 -17 -133 21 -159 30 -21 50 -20 80 4 20 15 29 37 41
102 54 276 49 555 -13 748 -55 170 -141 299 -326 490 l-132 135 74 375 c41
206 74 376 74 377 0 2 17 11 38 22 95 49 143 149 121 251 -15 68 -57 122 -120
154 l-53 26 -308 0 -309 0 -24 -25 c-14 -13 -25 -36 -25 -50 0 -14 11 -37 25
-50 l24 -25 295 0 c295 0 295 0 322 -23 35 -30 37 -79 5 -110 l-22 -22 -728
-3 c-459 -1 -738 1 -754 7 -58 22 -71 87 -27 131 19 19 35 20 320 20 l301 0
24 25 c14 13 25 36 25 50 0 14 -11 37 -25 50 l-24 25 -309 0 -308 0 -55 -27z
m1368 -783 l-70 -350 -483 0 c-266 0 -484 1 -484 3 0 5 -129 650 -135 675 l-5
22 623 0 624 0 -70 -350z m93 -628 c118 -120 189 -206 178 -217 -3 -3 -378 -4
-833 -3 l-828 3 48 60 c26 33 97 111 159 173 l111 112 519 0 520 0 126 -128z
m281 -399 c29 -73 50 -178 56 -280 l6 -113 -987 0 -986 0 0 78 c0 92 12 171
41 269 l22 73 919 0 918 0 11 -27z"/>
<path d="M2577 3160 c-34 -27 -37 -80 -7 -110 17 -17 33 -20 125 -20 92 0 108
3 125 20 25 25 26 71 1 101 -17 22 -28 24 -118 27 -88 3 -101 2 -126 -18z"/>
<path d="M3063 3170 c-46 -19 -57 -83 -20 -118 21 -20 34 -22 124 -22 83 0
105 3 124 18 33 27 30 78 -5 109 -24 20 -37 23 -114 22 -48 0 -97 -4 -109 -9z"/>
<path d="M3534 3168 c-22 -10 -44 -47 -44 -72 0 -7 9 -25 21 -40 20 -25 24
-26 129 -26 105 0 109 1 129 26 12 15 21 33 21 40 0 26 -23 62 -47 73 -30 14
-180 13 -209 -1z"/>
<path d="M3997 3160 c-34 -27 -37 -80 -7 -110 17 -17 33 -20 125 -20 92 0 108
3 125 20 25 25 26 71 1 101 -17 22 -28 24 -118 27 -88 3 -101 2 -126 -18z"/>
<path d="M1428 4720 c-20 -15 -27 -33 -33 -77 -31 -255 -380 -608 -634 -642
-71 -9 -101 -33 -101 -78 0 -33 42 -73 78 -73 48 0 153 -37 217 -76 139 -85
123 -79 161 -61 40 20 54 58 33 96 -8 14 -43 45 -77 68 -34 23 -64 44 -65 46
-1 3 34 29 78 58 105 70 268 233 335 336 l53 82 34 -56 c78 -130 203 -259 347
-358 40 -27 73 -54 75 -58 1 -5 -31 -31 -71 -59 -145 -100 -282 -243 -359
-374 l-26 -46 -23 39 c-13 21 -39 57 -57 81 -43 52 -89 58 -122 16 -28 -36
-26 -63 8 -110 51 -68 99 -177 112 -249 8 -51 18 -76 36 -92 53 -50 109 -11
123 85 17 121 98 258 236 396 138 137 313 236 418 236 69 0 103 88 50 129 -15
12 -39 21 -54 21 -100 0 -281 103 -413 235 -137 137 -220 276 -237 397 -14 95
-66 133 -122 88z"/>
<path d="M1590 1160 c-70 -13 -127 -37 -189 -78 -58 -39 -1111 -891 -1168
-945 -24 -23 -33 -40 -33 -64 0 -39 32 -73 69 -73 29 0 39 8 746 584 505 411
535 431 649 430 62 -1 120 -17 474 -133 222 -72 435 -138 473 -146 108 -23
240 -20 335 9 78 23 740 269 779 289 48 25 57 69 24 111 -13 17 -30 26 -48 26
-16 0 -178 -56 -361 -125 -435 -163 -475 -176 -570 -176 -101 0 -155 13 -480
119 -562 184 -593 192 -700 172z"/>
<path d="M4477 1060 c-16 -13 -29 -35 -33 -58 -10 -53 -30 -88 -83 -145 -56
-61 -126 -107 -162 -107 -31 0 -74 -31 -81 -58 -9 -33 18 -81 49 -87 132 -29
260 -149 278 -263 8 -47 34 -72 75 -72 40 0 59 20 75 79 7 29 26 71 41 92 57
83 162 158 222 159 60 0 85 91 36 129 -15 12 -39 21 -53 21 -55 0 -182 104
-221 180 -10 20 -21 53 -25 73 -8 39 -44 77 -75 77 -10 0 -29 -9 -43 -20z
m107 -324 l64 -65 -64 -64 -64 -64 -64 65 -65 64 62 63 c34 35 63 64 64 64 2
1 32 -28 67 -63z"/>
</g>
</svg>
