<?xml version="1.0" standalone="no"?>
<!DOCTYPE svg PUBLIC "-//W3C//DTD SVG 20010904//EN"
 "http://www.w3.org/TR/2001/REC-SVG-20010904/DTD/svg10.dtd">
<svg version="1.0" xmlns="http://www.w3.org/2000/svg"
 width="512.000000pt" height="512.000000pt" viewBox="0 0 512.000000 512.000000"
 preserveAspectRatio="xMidYMid meet">

<g transform="translate(0.000000,512.000000) scale(0.100000,-0.100000)"
fill="#000000" stroke="none">
<path d="M2478 5105 c-21 -8 -575 -355 -1233 -771 -977 -619 -1199 -764 -1218
-793 -16 -26 -22 -52 -22 -91 0 -50 7 -67 74 -185 91 -159 113 -191 153 -211
66 -34 137 -19 235 48 l43 29 2 -1433 3 -1433 28 -61 c34 -73 92 -132 167
-171 l55 -28 1769 -3 c1587 -2 1776 -1 1824 13 102 30 173 91 219 190 l28 60
3 1432 2 1431 75 -45 c61 -37 82 -45 123 -45 59 0 103 21 135 64 13 18 57 92
98 163 67 118 74 135 74 185 0 100 0 100 -445 381 l-400 253 0 356 c-1 372 -4
404 -47 452 -10 11 -36 29 -58 39 -36 17 -70 19 -323 19 -232 0 -289 -3 -319
-15 -82 -34 -105 -77 -112 -207 l-6 -97 -130 83 c-468 298 -597 378 -635 391
-52 18 -112 18 -162 0z m1252 -881 c624 -397 1154 -733 1177 -747 l42 -27 -65
-112 c-36 -62 -69 -117 -73 -121 -5 -5 -500 308 -1102 695 l-1093 703 -56 0
-56 0 -964 -620 c-531 -340 -1023 -656 -1093 -702 -70 -46 -131 -83 -135 -83
-10 1 -134 229 -130 241 2 5 532 345 1178 754 983 623 1180 745 1205 742 19
-2 447 -268 1165 -723z m370 265 c0 -229 -3 -290 -13 -286 -6 2 -123 75 -260
162 l-247 157 0 129 0 129 260 0 260 0 0 -291z m-595 -648 l930 -599 3 -1452
c1 -952 -1 -1466 -8 -1490 -14 -51 -46 -89 -94 -111 -39 -18 -108 -19 -1776
-19 -1662 0 -1737 1 -1775 19 -22 10 -48 28 -58 39 -47 53 -46 7 -47 1554 l0
1456 933 601 c512 330 939 600 947 600 8 0 434 -269 945 -598z"/>
<path d="M3265 3324 c-11 -2 -45 -9 -75 -15 -30 -6 -97 -31 -148 -55 -236
-114 -382 -364 -370 -636 l5 -96 -114 -114 -113 -113 -72 72 -71 71 41 47 c78
89 98 222 49 329 -33 72 -223 269 -300 312 -47 26 -61 29 -142 29 -99 0 -140
-15 -210 -77 l-36 -31 -82 81 c-86 85 -115 102 -174 102 -62 0 -116 -36 -222
-145 -161 -167 -163 -239 -12 -389 l69 -69 -42 -57 c-53 -72 -70 -130 -64
-218 7 -96 34 -140 167 -275 141 -143 189 -171 295 -171 80 -1 139 21 208 75
l40 32 71 -71 71 -72 -330 -332 c-270 -272 -336 -343 -358 -390 -93 -192 -13
-419 179 -514 54 -26 70 -29 160 -29 160 0 155 -4 550 393 l336 337 337 -342
c238 -241 350 -348 382 -364 61 -30 162 -37 227 -15 169 56 246 261 160 423
-12 24 -164 187 -353 380 l-331 338 109 114 109 113 109 -1 c129 -2 216 16
315 64 134 67 238 173 305 310 82 171 95 384 28 478 -42 59 -148 85 -221 53
-18 -8 -84 -66 -147 -131 -116 -118 -152 -145 -190 -145 -35 0 -79 28 -96 62
-31 60 -17 86 123 233 70 75 133 148 140 163 38 86 -14 209 -102 242 -32 12
-177 22 -210 14z m152 -178 c3 -3 -48 -61 -113 -128 -66 -68 -127 -140 -137
-160 -60 -127 -26 -277 80 -351 59 -42 97 -55 164 -56 103 -2 140 19 281 157
70 68 131 121 137 117 14 -8 14 -109 0 -177 -37 -178 -188 -337 -363 -384 -58
-16 -182 -18 -240 -4 -29 6 -48 5 -70 -5 -17 -7 -89 -72 -161 -144 l-130 -131
-142 142 c-79 79 -143 147 -143 152 0 6 64 74 141 153 141 141 141 142 135
180 -3 21 -8 72 -12 113 -20 241 151 471 389 525 58 14 171 14 184 1z m-1894
-154 l67 -67 -90 -90 -90 -90 -67 67 -66 66 84 91 c46 50 86 91 89 91 3 0 36
-30 73 -68z m495 -16 c47 -24 219 -210 230 -247 22 -81 20 -83 -266 -371 -277
-279 -300 -297 -365 -283 -35 8 -227 187 -253 237 -15 28 -18 90 -6 121 10 25
490 516 527 538 36 22 95 24 133 5z m1503 -2011 c23 -36 24 -95 4 -135 -28
-53 -101 -75 -155 -47 -22 12 -938 928 -1254 1254 l-99 102 84 90 84 91 659
-663 c362 -364 667 -675 677 -692z m-1393 167 c-178 -178 -336 -330 -351 -338
-15 -8 -50 -18 -77 -21 -41 -5 -59 -1 -105 22 -73 35 -107 85 -113 165 -8 106
-9 105 347 463 l325 327 148 -147 148 -148 -322 -323z"/>
</g>
</svg>
