<?xml version="1.0" standalone="no"?>
<!DOCTYPE svg PUBLIC "-//W3C//DTD SVG 20010904//EN"
 "http://www.w3.org/TR/2001/REC-SVG-20010904/DTD/svg10.dtd">
<svg version="1.0" xmlns="http://www.w3.org/2000/svg"
 width="500.000000pt" height="500.000000pt" viewBox="0 0 500.000000 500.000000"
 preserveAspectRatio="xMidYMid meet">

<g transform="translate(0.000000,500.000000) scale(0.100000,-0.100000)"
fill="#000000" stroke="none">
<path d="M2644 4656 c-17 -8 -44 -31 -60 -52 l-29 -37 -3 -242 -3 -242 -94 -5
c-72 -4 -101 -10 -128 -27 -57 -35 -67 -69 -67 -230 l0 -141 -52 0 c-96 0
-188 -61 -225 -148 -8 -18 -15 -57 -16 -85 l-2 -52 46 -3 46 -3 6 52 c7 61 26
93 70 120 31 19 56 19 1219 17 l1188 -3 37 -38 38 -37 5 -105 5 -105 -1188 0
-1187 0 32 -57 33 -58 3 -487 3 -488 110 0 110 0 -6 -32 c-11 -71 -25 -205
-25 -251 0 -40 5 -53 29 -78 l29 -29 777 0 777 0 29 29 c34 34 34 42 14 206
-8 65 -15 127 -15 137 0 17 14 18 173 18 247 0 313 25 371 142 l26 52 0 539
c0 395 -3 551 -12 581 -16 55 -101 140 -154 155 -21 6 -58 11 -81 11 l-41 0
-4 148 c-3 135 -5 150 -26 180 -35 49 -75 64 -179 70 l-93 5 0 236 c0 273 -4
289 -80 329 l-44 22 -666 0 c-538 -1 -671 -3 -696 -14z m1367 -96 c18 -10 19
-26 19 -445 l0 -435 -690 0 -690 0 0 427 c0 383 2 428 17 445 15 17 49 18 670
18 432 0 661 -4 674 -10z m259 -1689 c6 -12 10 -125 10 -296 l0 -276 -72 3
-73 3 -7 55 c-20 162 -38 316 -38 328 0 7 13 12 33 12 38 0 57 15 57 45 0 12
-5 26 -12 33 -9 9 -207 12 -830 12 l-818 0 -6 -27 c-9 -36 7 -57 47 -63 31 -5
34 -8 32 -35 -4 -44 -32 -284 -39 -327 l-6 -38 -69 0 -69 0 0 283 c0 207 3
286 12 295 9 9 228 12 925 12 892 0 913 0 923 -19z m-280 -178 c0 -9 5 -54 54
-469 20 -166 36 -304 36 -308 0 -3 -331 -6 -735 -6 l-735 0 0 29 c0 15 11 122
25 237 14 115 32 270 40 344 8 74 18 145 20 158 l5 22 645 0 c355 0 645 -3
645 -7z"/>
<path d="M2786 2528 c-21 -29 -20 -41 2 -61 17 -15 70 -17 551 -17 348 0 539
4 552 10 12 7 19 21 19 40 0 19 -7 33 -19 40 -13 6 -205 10 -555 10 l-535 0
-15 -22z"/>
<path d="M2760 2331 c-15 -28 -12 -46 8 -64 17 -15 71 -17 575 -17 544 0 557
0 577 20 24 24 24 29 4 58 l-15 22 -569 0 c-553 0 -570 -1 -580 -19z"/>
<path d="M2760 2147 c-28 -14 -38 -51 -20 -73 10 -12 64 -14 320 -14 331 0
336 1 328 52 -6 44 -34 48 -328 48 -201 0 -282 -4 -300 -13z"/>
<path d="M3990 3460 c-6 -12 -8 -30 -5 -40 7 -24 52 -37 74 -23 20 13 26 50
11 69 -19 21 -67 18 -80 -6z"/>
<path d="M4192 3468 c-16 -16 -15 -53 2 -67 8 -7 27 -11 43 -9 34 4 54 47 33
72 -15 19 -61 21 -78 4z"/>
<path d="M4390 3466 c-15 -19 -9 -56 11 -69 9 -5 28 -7 42 -3 52 13 42 86 -12
86 -16 0 -34 -7 -41 -14z"/>
<path d="M624 3331 c-58 -26 -106 -72 -134 -128 l-25 -48 0 -1340 c0 -1315 0
-1341 20 -1380 11 -22 39 -59 62 -82 79 -76 50 -74 839 -71 668 3 701 4 738
22 53 27 104 80 130 135 l21 46 3 1317 2 1316 -21 57 c-25 68 -82 128 -145
156 -44 18 -75 19 -747 19 -661 0 -704 -2 -743 -19z m928 -266 c8 -19 8 -31 0
-50 l-12 -25 -168 0 c-117 0 -172 4 -180 12 -15 15 -15 43 -2 69 10 18 23 19
181 19 l169 0 12 -25z m578 -1250 l0 -905 -760 0 -760 0 0 905 0 905 760 0
760 0 0 -905z m-703 -1066 c43 -16 92 -69 104 -113 42 -157 -147 -279 -268
-173 -66 58 -80 132 -40 208 39 74 127 107 204 78z"/>
</g>
</svg>
