<?xml version="1.0"?>
<svg xmlns="http://www.w3.org/2000/svg" viewBox="0 0 26 26" enable-background="new 0 0 26 26">
    <path d="M 5.3125 0 C 3.4125 -8.8817842e-16 1.70625 1.2875 1.40625 3.1875 L 0.09375 9.59375 C -0.00625 9.89375 1.8503717e-17 10.10625 0 10.40625 L 0 20 C 0 20.736545 0.40312235 21.371688 1 21.71875 L 1 23 C 1 23.6 1.4 24 2 24 L 4 24 C 4.6 24 5 23.6 5 23 L 5 22 L 12 22 L 12 19.8125 C 12 19.2125 12.10625 18.50625 12.40625 17.90625 L 13.59375 14.90625 C 14.09375 13.80625 15.20625 13 16.40625 13 L 19 13 L 19 10.40625 C 19 10.10625 19.00625 9.89375 18.90625 9.59375 L 17.59375 3.1875 C 17.19375 1.2875 15.5875 -5.9211895e-16 13.6875 0 L 5.3125 0 z M 7 1 L 12 1 C 12.6 1 13 1.4 13 2 C 13 2.6 12.6 3 12 3 L 7 3 C 6.4 3 6 2.6 6 2 C 6 1.4 6.4 1 7 1 z M 4.09375 4 L 15 4 C 15.5 4 15.9 4.3125 16 4.8125 L 16.8125 8.8125 C 16.9125 9.4125 16.5125 10 15.8125 10 L 3.3125 10 C 2.7125 10 2.2125 9.4125 2.3125 8.8125 L 3.09375 4.8125 C 3.19375 4.3125 3.59375 4 4.09375 4 z M 16.3125 14 C 15.5125 14 14.70625 14.5125 14.40625 15.3125 L 13.1875 18.3125 C 12.9875 18.8125 12.90625 19.3125 12.90625 19.8125 L 12.90625 24 L 13 24 L 13 25 C 13 25.6 13.4 26 14 26 L 15 26 C 15.6 26 16 25.6 16 25 L 16 24 L 23 24 L 23 25 C 23 25.6 23.4 26 24 26 L 25 26 C 25.6 26 26 25.6 26 25 L 26 23 L 25.90625 23 L 25.90625 19.8125 C 26.00625 19.3125 25.8875 18.8125 25.6875 18.3125 L 24.5 15.3125 C 24.2 14.5125 23.49375 14 22.59375 14 L 16.3125 14 z M 16.3125 15.5 L 22.6875 15.5 C 22.8875 15.5 23.2125 15.70625 23.3125 15.90625 L 24.3125 18.5 C 24.4125 18.7 24.2 19 24 19 L 15 19 C 14.8 19 14.5875 18.7 14.6875 18.5 L 15.6875 15.90625 C 15.7875 15.70625 16.0125 15.5 16.3125 15.5 z M 3.5 17 C 4.3 17 5 17.7 5 18.5 C 5 19.3 4.3 20 3.5 20 C 2.7 20 2 19.3 2 18.5 C 2 17.7 2.7 17 3.5 17 z M 15 21 C 15.6 21 16 21.4 16 22 C 16 22.6 15.6 23 15 23 C 14.4 23 14 22.6 14 22 C 14 21.4 14.4 21 15 21 z M 24 21 C 24.6 21 25 21.4 25 22 C 25 22.6 24.6 23 24 23 C 23.4 23 23 22.6 23 22 C 23 21.4 23.4 21 24 21 z"/>
</svg>
